<?xml version="1.0" encoding="UTF-8"?>
<svg xmlns="http://www.w3.org/2000/svg" width="189" height="61" viewBox="0 0 189 61" fill="none">
  <path d="M69.7311 25.2425V21.9812C69.7311 10.5555 60.469 0.0722656 49.0433 0.0722656H29.6484V39.678C40.2955 38.4008 51.8476 37.4411 64.0391 36.8578C67.5028 34.1698 69.7311 29.9662 69.7311 25.2425ZM55.2008 30.7247C53.1464 32.7791 50.3104 34.0491 47.1756 34.0491H40.998V11.35H41.0382V9.8645H46.3898C53.0242 9.8645 58.4117 15.2031 58.4922 21.8189V21.8261C58.5137 22.1149 58.5252 22.4051 58.5252 22.6996C58.5252 25.8344 57.2552 28.6703 55.2008 30.7247Z" fill="black"></path>
  <path d="M77.99 36.3632C82.5227 36.2583 87.1243 36.2037 91.7848 36.2037C99.1706 36.2037 106.413 36.3387 113.462 36.5988C113.757 36.1793 114.039 35.7483 114.306 35.3072L105.646 28.8681C103.764 32.6494 100.224 35.198 96.1666 35.198C90.1369 35.198 85.248 29.5692 85.248 22.6273C85.248 15.6854 90.1369 10.0566 96.1666 10.0566C100.077 10.0566 103.506 12.4228 105.434 15.9799L113.589 9.55663C109.611 3.76691 103.129 0 95.8074 0C83.7079 0 73.8984 10.2908 73.8984 22.9865C73.8984 27.976 75.4141 32.5948 77.9886 36.3632H77.99Z" fill="black"></path>
  <path d="M151.335 34.0487H130.503V0H118.723V36.8186C130.23 37.3516 141.175 38.2208 151.335 39.3758V34.0487Z" fill="black"></path>
  <path d="M167.857 2.58594L155.789 14.6538V39.9059C159.963 40.426 163.989 40.9963 167.857 41.6112V2.58594Z" fill="black"></path>
  <path d="M155.789 0V10.6312L166.42 0H155.789Z" fill="#B1282E"></path>
  <path d="M188.213 46.5565C164.185 41.827 131.987 38.9336 96.5978 38.9336C58.7017 38.9336 24.4634 42.2508 0 47.5894C28.4802 44.663 62.7157 42.9562 99.5429 42.9562C131.796 42.9562 162.062 44.265 188.213 46.5565Z" fill="#B1282E"></path>
</svg>
