<svg width="40" height="40" viewBox="0 0 40 40" fill="none" xmlns="http://www.w3.org/2000/svg">
<circle cx="20" cy="20" r="20" fill="#043A53"/>
<path d="M20 30C22.6522 30 25.1957 28.9464 27.0711 27.0711C28.9464 25.1957 30 22.6522 30 20C30 17.3478 28.9464 14.8043 27.0711 12.9289C25.1957 11.0536 22.6522 10 20 10C17.3478 10 14.8043 11.0536 12.9289 12.9289C11.0536 14.8043 10 17.3478 10 20C10 22.6522 11.0536 25.1957 12.9289 27.0711C14.8043 28.9464 17.3478 30 20 30ZM20 7.5C21.6415 7.5 23.267 7.82332 24.7835 8.45151C26.3001 9.07969 27.6781 10.0004 28.8388 11.1612C29.9996 12.3219 30.9203 13.6999 31.5485 15.2165C32.1767 16.733 32.5 18.3585 32.5 20C32.5 23.3152 31.183 26.4946 28.8388 28.8388C26.4946 31.183 23.3152 32.5 20 32.5C13.0875 32.5 7.5 26.875 7.5 20C7.5 16.6848 8.81696 13.5054 11.1612 11.1612C13.5054 8.81696 16.6848 7.5 20 7.5ZM20.625 13.75V20.3125L26.25 23.65L25.3125 25.1875L18.75 21.25V13.75H20.625Z" fill="white"/>
</svg>
