<svg width="44" height="44" viewBox="0 0 44 44" fill="none" xmlns="http://www.w3.org/2000/svg">
<rect width="44" height="44" rx="8" fill="#EFF9FF"/>
<path d="M22.035 27.012C22.035 26.2163 21.7189 25.4533 21.1563 24.8907C20.5937 24.3281 19.8306 24.012 19.035 24.012L18.724 24.01C18.582 24.0092 18.4434 23.9663 18.3256 23.8869C18.2079 23.8075 18.1162 23.695 18.0623 23.5637C18.0083 23.4323 17.9943 23.2879 18.0222 23.1486C18.0501 23.0094 18.1186 22.8815 18.219 22.781L19.414 21.586C19.789 21.2109 20.2976 21.0001 20.828 21H22C22.5304 21 23.0391 20.7893 23.4142 20.4142C23.7893 20.0391 24 19.5304 24 19C24 18.4696 23.7893 17.9609 23.4142 17.5858C23.0391 17.2107 22.5304 17 22 17H19.243C18.8489 17 18.4586 17.0776 18.0945 17.2284C17.7304 17.3792 17.3996 17.6003 17.121 17.879L14.414 20.586C13.5088 21.4916 13.0002 22.7196 13 24C13 26.1217 13.8429 28.1566 15.3431 29.6569C16.8434 31.1571 18.8783 32 21 32H23C25.1217 32 27.1566 31.1571 28.6569 29.6569C30.1571 28.1566 31 26.1217 31 24V17C31 16.4696 30.7893 15.9609 30.4142 15.5858C30.0391 15.2107 29.5304 15 29 15C28.4696 15 27.9609 15.2107 27.5858 15.5858C27.2107 15.9609 27 16.4696 27 17V19C27 19.5304 27.2107 20.0391 27.5858 20.4142C27.9609 20.7893 28.4696 21 29 21C29.5304 21 30.0391 20.7893 30.4142 20.4142C30.7893 20.0391 31 19.5304 31 19" stroke="#0069AB" stroke-width="3" stroke-linecap="round" stroke-linejoin="round"/>
<path d="M23.888 19.662C24.1891 19.8634 24.5392 19.9793 24.901 19.9972C25.2628 20.0151 25.6227 19.9345 25.9422 19.7638C26.2617 19.5932 26.5289 19.3389 26.7152 19.0283C26.9015 18.7176 26.9999 18.3622 27 18V15C27 14.4696 26.7893 13.9609 26.4142 13.5858C26.0391 13.2107 25.5304 13 25 13C24.4696 13 23.9609 13.2107 23.5858 13.5858C23.2107 13.9609 23 14.4696 23 15" stroke="#0069AB" stroke-width="3" stroke-linecap="round" stroke-linejoin="round"/>
<path d="M19 15C19 14.4696 18.7893 13.9609 18.4142 13.5858C18.0391 13.2107 17.5304 13 17 13C16.4696 13 15.9609 13.2107 15.5858 13.5858C15.2107 13.9609 15 14.4696 15 15V20" stroke="#0069AB" stroke-width="3" stroke-linecap="round" stroke-linejoin="round"/>
<path d="M19 17V14C19 13.4696 19.2107 12.9609 19.5858 12.5858C19.9609 12.2107 20.4696 12 21 12C21.5304 12 22.0391 12.2107 22.4142 12.5858C22.7893 12.9609 23 13.4696 23 14V17.268" stroke="#0069AB" stroke-width="3" stroke-linecap="round" stroke-linejoin="round"/>
</svg>
