<svg width="96" height="90" viewBox="0 0 96 90" fill="none" xmlns="http://www.w3.org/2000/svg">
<path d="M38.0488 60.2834C37.3759 60.0511 36.759 59.8147 36.1262 59.6225C33.6307 58.8534 32.409 57.107 32.1446 54.5714C32.0164 53.3337 31.8562 52.096 31.6399 50.8703C31.4477 49.7848 30.7026 49.0358 29.9456 48.3148C29.8935 48.3228 29.8414 48.3268 29.7894 48.3348C29.7894 48.5992 29.7894 48.8635 29.7894 49.1279C29.7773 50.8383 29.9095 52.5687 29.7293 54.259C29.3688 57.6197 27.7345 60.1912 24.51 61.5131C21.9385 62.5625 19.4911 61.6893 18.3975 59.4022C17.8528 58.2646 17.7567 57.0349 17.9329 55.7931C18.1852 54.0187 18.5057 52.2562 18.2053 50.4417C17.9609 48.9557 17.3401 47.6819 16.2466 46.6685C15.5656 46.0356 14.8005 45.4989 14.0876 44.902C13.4627 44.3813 12.8659 43.8245 12.241 43.3118C12.1168 43.2077 11.9005 43.1676 11.7323 43.1796C11.2877 43.2077 10.8431 43.3198 10.3984 43.3238C7.87093 43.3359 5.33941 43.3359 2.8119 43.3198C2.41936 43.3198 2.01079 43.2477 1.64629 43.1115C0.612851 42.723 0 41.7777 0 40.6561C0 34.6838 0 28.7116 0 22.7393C0 21.133 1.0815 20.0435 2.69174 20.0355C5.38748 20.0235 8.08322 20.0355 10.779 20.0355C11.536 20.0355 12.1649 20.3479 12.7016 20.8526C12.9139 21.0489 13.0421 21.0649 13.2824 20.8687C14.2478 20.0796 15.3653 19.6229 16.6031 19.5268C17.4963 19.4587 18.3975 19.4547 19.2948 19.4507C23.2563 19.4307 27.2138 19.4146 31.1753 19.4106C31.6239 19.4106 31.8482 19.3586 31.8763 18.8098C31.9323 17.8164 32.0805 16.8271 32.2408 15.8457C32.5652 13.8629 33.6788 12.477 35.5413 11.736C36.5588 11.3314 37.6002 10.9869 38.6416 10.6465C39.7712 10.278 40.7125 9.66912 41.3574 8.6517C41.8741 7.83858 42.4069 7.03346 42.8795 6.19229C44.2735 3.69282 46.4285 2.83964 49.1803 3.19213C50.0214 3.30028 50.8706 3.35235 51.7118 3.45249C52.9735 3.60069 54.1151 3.29226 55.1806 2.62334C56.1379 2.0225 57.0953 1.41766 58.0726 0.856884C60.0353 -0.264673 62.0261 -0.292712 64.0049 0.816828C64.9181 1.32954 65.8274 1.85827 66.6806 2.45911C68.0144 3.39641 69.4524 3.64876 71.0386 3.42044C72.024 3.27624 73.0214 3.20414 74.0188 3.15207C76.0015 3.04392 77.5997 3.76893 78.7093 5.44325C79.3341 6.38456 79.943 7.33788 80.5158 8.31123C81.2087 9.48486 82.1781 10.27 83.4919 10.6585C84.3371 10.9068 85.1622 11.2113 85.9994 11.4796C88.5549 12.3008 89.7847 14.1433 90.065 16.7269C90.1572 17.5521 90.2773 18.3772 90.3414 19.2024C90.4536 20.6043 91.1025 21.7098 92.0878 22.6792C92.9891 23.5644 93.8743 24.4697 94.6915 25.431C95.8371 26.7809 96.1335 28.3591 95.6448 30.0614C95.3684 31.0188 95.096 31.9801 94.7195 32.9014C93.9184 34.8761 94.0666 36.7788 94.8997 38.7014C95.4205 39.9071 95.817 41.1608 95.8571 42.4947C95.8931 43.6363 95.5487 44.6697 94.8597 45.5629C94.335 46.2439 93.7221 46.8607 93.1333 47.4936C92.8169 47.8341 92.4684 48.1465 92.1199 48.455C90.8902 49.5485 90.3895 50.9504 90.2453 52.5566C90.1411 53.7423 89.9569 54.936 89.6605 56.0855C89.2479 57.6798 88.1624 58.7613 86.6523 59.3901C85.8592 59.7226 85.0421 59.995 84.1729 60.3194C84.4132 60.744 84.6335 61.1446 84.8578 61.5411C88.1584 67.3492 91.459 73.1532 94.7596 78.9613C94.8397 79.1055 94.9158 79.2537 94.9759 79.4099C95.3163 80.2791 94.7395 81.0362 93.8182 80.8639C92.2 80.5635 90.5938 80.211 88.9875 79.8706C87.3453 79.5261 85.703 79.1816 84.0687 78.8091C83.6962 78.725 83.58 78.8492 83.4719 79.1776C82.4825 82.1377 81.4771 85.0898 80.4837 88.0499C80.2915 88.6267 80.1272 89.2276 79.3822 89.3037C78.6452 89.3798 78.3888 88.803 78.1004 88.3023C74.4433 81.9174 70.7903 75.5285 67.1372 69.1397C67.0411 68.9714 66.9249 68.8152 66.8168 68.659C65.8915 69.2158 65.0223 69.7605 64.129 70.2692C62.0702 71.4389 60.0113 71.4028 57.9685 70.2212C57.1914 69.7726 56.4263 69.3039 55.6653 68.8272C55.4089 68.667 55.2888 68.687 55.1285 68.9674C52.0162 74.4591 48.8919 79.9467 45.7675 85.4303C45.1587 86.4998 44.5218 87.5492 43.905 88.6147C43.6526 89.0473 43.3201 89.3477 42.7874 89.2997C42.2467 89.2516 41.9863 88.8751 41.8261 88.4064C40.7886 85.3582 39.7472 82.314 38.7298 79.2617C38.5896 78.8371 38.4294 78.749 37.9927 78.8451C34.8444 79.5261 31.688 80.175 28.5356 80.8399C28.067 80.9401 27.6424 80.912 27.3179 80.5034C26.9614 80.0548 27.0656 79.6062 27.3179 79.1576C28.7038 76.6982 30.0697 74.2267 31.4717 71.7753C33.5666 68.1102 35.6815 64.4612 37.7885 60.8041C37.8766 60.6519 37.9487 60.4877 38.0488 60.2874V60.2834ZM40.6885 25.2708C40.8287 25.3108 41.025 25.3509 41.2052 25.423C41.5737 25.5672 41.762 25.431 41.9462 25.0905C45.5312 18.5855 51.0829 14.7722 58.3851 13.907C66.0477 12.9977 72.5968 15.5132 77.7159 21.4214C80.3355 24.4456 81.9578 27.9545 82.6588 31.88C83.4719 36.4463 82.823 40.8644 80.8122 44.9942C77.9682 50.8463 73.3779 54.7597 67.0731 56.5943C62.631 57.8881 58.2288 57.7398 53.8828 56.2297C48.1589 54.243 44.0772 50.3776 41.3654 45.0142C41.2292 44.7498 41.093 44.5936 40.7726 44.5976C37.7124 44.6216 34.6521 44.6377 31.5879 44.6537C31.1072 44.6537 30.6225 44.6617 30.1418 44.6577C29.8014 44.6577 29.7333 44.846 29.8454 45.1103C29.9135 45.2705 30.0377 45.4187 30.1659 45.5469C30.7227 46.1197 31.2914 46.6765 31.8562 47.2453C32.9778 48.3749 33.7348 49.6967 33.9391 51.2909C34.0593 52.2322 34.1915 53.1695 34.2475 54.1148C34.3557 55.8372 35.1208 57.0389 36.8111 57.5836C37.428 57.7839 38.0368 58.0042 38.6416 58.2365C39.3667 58.5129 40.1157 58.7573 40.8047 59.1097C42.1906 59.8187 43.0197 61.0805 43.8409 62.3422C44.4016 63.2034 44.9544 64.0766 45.5673 64.8978C46.072 65.5787 46.801 65.8992 47.6622 65.8431C48.6716 65.775 49.693 65.7389 50.6904 65.5867C52.7653 65.2743 54.6919 65.5787 56.4664 66.7363C57.3837 67.3372 58.321 67.91 59.2663 68.4627C60.4199 69.1397 61.6095 69.1557 62.7752 68.4868C63.8126 67.8939 64.838 67.2731 65.8594 66.6522C67.3215 65.759 68.8796 65.3064 70.61 65.5106C71.8317 65.6548 73.0574 65.747 74.2831 65.8431C75.5409 65.9432 76.4501 65.3865 77.1031 64.333C77.6718 63.4157 78.2767 62.5185 78.8455 61.6012C79.7547 60.1352 80.9684 59.0657 82.6347 58.5329C83.584 58.2285 84.5213 57.8961 85.4626 57.5676C86.7965 57.103 87.6657 56.2538 87.8019 54.7757C87.866 54.0828 88.0222 53.3938 88.0623 52.7009C88.2105 50.2014 89.1718 48.1225 91.0905 46.4762C91.7794 45.8834 92.3802 45.1784 92.9851 44.4975C93.5178 43.9006 93.8102 43.1596 93.654 42.3785C93.4297 41.281 93.1693 40.1715 92.7648 39.13C91.9076 36.935 91.7273 34.7599 92.5845 32.5248C92.893 31.7197 93.1213 30.8866 93.4017 30.0694C93.9264 28.5473 93.614 27.2295 92.4644 26.0999C91.7994 25.447 91.1546 24.7741 90.4816 24.1332C89.2119 22.9155 88.4188 21.4575 88.1984 19.7071C88.0783 18.7337 87.9661 17.7603 87.866 16.783C87.7018 15.2048 86.9647 14.0672 85.4066 13.5465C84.4172 13.214 83.4358 12.8455 82.4425 12.5171C80.8282 11.9883 79.6626 10.9629 78.8054 9.50889C78.1565 8.40736 77.4435 7.34189 76.7065 6.30044C76.2298 5.62751 75.5168 5.28303 74.6797 5.31507C73.6342 5.35513 72.5808 5.36314 71.5473 5.51936C69.3082 5.85582 67.2614 5.50333 65.3708 4.20553C64.5376 3.63274 63.6363 3.16008 62.7551 2.65939C61.5414 1.97043 60.3398 2.04654 59.1621 2.75151C58.321 3.25621 57.4798 3.75691 56.6547 4.28965C55.0644 5.31908 53.3501 5.80375 51.4434 5.58745C50.3379 5.45927 49.2243 5.4072 48.1108 5.31107C46.841 5.20292 45.8236 5.63552 45.1307 6.72503C44.6059 7.55418 44.0732 8.37532 43.5925 9.22851C42.519 11.1352 40.9008 12.2807 38.8099 12.8656C37.8405 13.1379 36.9072 13.5505 35.9779 13.9551C35.1127 14.3316 34.572 15.0165 34.4238 15.9538C34.2475 17.0634 34.1154 18.1809 33.9511 19.3786C34.1875 19.3786 34.3437 19.3786 34.4999 19.3786C35.4492 19.3866 36.3985 19.3586 37.3438 19.4146C39.3947 19.5308 40.8567 20.9928 40.9328 23.0437C40.9569 23.7567 40.7766 24.4737 40.6845 25.2588L40.6885 25.2708ZM44.4537 37.7962C44.4777 37.8322 44.4978 37.8763 44.5298 37.9083C46.2001 39.6948 45.8477 42.9073 43.7047 44.1009C43.4083 44.2651 43.4683 44.4614 43.6005 44.6777C44.0892 45.4708 44.5258 46.296 45.0826 47.037C48.6515 51.8076 53.3461 54.7076 59.3344 55.1723C66.3161 55.713 72.0761 53.1655 76.5262 47.794C79.1138 44.6697 80.3756 40.9766 80.7 36.947C81.1006 32.0161 79.7948 27.5179 76.7746 23.6886C71.9479 17.5721 65.5109 14.9484 57.7802 16.2022C51.2792 17.2556 46.5166 20.9247 43.4283 26.7528C43.2721 27.0452 43.2801 27.2936 43.4003 27.598C43.7207 28.4191 43.8529 29.2683 43.6125 30.1375C43.5124 30.498 43.3482 30.8385 43.216 31.187C45.9438 33.2138 46.2442 34.824 44.4497 37.8002L44.4537 37.7962ZM27.1697 21.5616C24.506 21.5616 21.8463 21.5576 19.1826 21.5616C18.4336 21.5616 17.6846 21.5656 16.9395 21.6377C14.5883 21.858 13.4427 23.0757 13.4347 25.423C13.4186 30.3618 13.4587 35.3047 13.4266 40.2436C13.4186 41.305 13.8392 42.0581 14.6363 42.6709C15.2972 43.1756 15.9742 43.6563 16.6271 44.177C17.7647 45.0863 18.7941 46.0957 19.471 47.4095C20.5726 49.5405 20.6567 51.7956 20.3322 54.1148C20.18 55.2123 20.0278 56.3339 20.0879 57.4314C20.188 59.2099 21.4378 60.0511 23.1682 59.6585C24.1736 59.4302 24.9947 58.8814 25.7037 58.1484C27.1938 56.6143 27.6304 54.7076 27.6344 52.6528C27.6384 49.8249 27.6344 46.9969 27.6384 44.169C27.6384 42.723 27.9268 42.4346 29.3928 42.4186C29.4249 42.4186 29.4609 42.4186 29.4929 42.4186C33.4024 42.4186 37.3158 42.4186 41.2252 42.4186C41.4736 42.4186 41.7259 42.4186 41.9743 42.3986C42.515 42.3585 42.9076 42.0861 43.1719 41.6175C43.7207 40.6441 43.3362 38.8937 41.6618 38.8777C40.4321 38.8697 39.1984 38.8777 37.9687 38.8697C37.6883 38.8697 37.3999 38.8496 37.1275 38.7935C36.6429 38.6934 36.4025 38.3409 36.3385 37.8763C36.2704 37.3836 36.5107 37.0271 36.9433 36.8388C37.1756 36.7347 37.456 36.7026 37.7164 36.6986C39.0302 36.6826 40.348 36.7147 41.6578 36.6746C42.7634 36.6426 43.4523 35.8615 43.4083 34.796C43.3602 33.7025 42.7113 33.1057 41.5537 33.1016C39.9555 33.1016 38.3573 33.1057 36.763 33.0976C36.4987 33.0976 36.2303 33.0616 35.9779 32.9855C35.5494 32.8573 35.2369 32.3766 35.2569 31.948C35.277 31.5154 35.6255 31.0869 36.0741 30.9947C36.3304 30.9386 36.6028 30.9226 36.8672 30.9186C37.8646 30.9066 38.866 30.9306 39.8633 30.8906C40.9969 30.8465 41.7379 29.8652 41.4936 28.8037C41.2693 27.8303 40.6965 27.3577 39.639 27.3376C38.193 27.3136 36.743 27.3457 35.297 27.3096C34.9726 27.3016 34.604 27.1814 34.3477 26.9892C33.9832 26.7168 33.9471 26.2682 34.0913 25.8476C34.2556 25.3709 34.6441 25.1426 35.1288 25.1266C35.8097 25.1025 36.4947 25.1186 37.1756 25.1106C38.1129 25.0985 38.6697 24.5618 38.7939 23.5644C38.898 22.7032 38.3412 21.826 37.5481 21.6457C37.2437 21.5776 36.9193 21.5576 36.6068 21.5576C33.4625 21.5496 30.3181 21.5576 27.1737 21.5536L27.1697 21.5616ZM53.3581 67.7017C53.0016 67.6857 52.7372 67.6416 52.4809 67.6656C51.2712 67.7658 50.0655 67.8819 48.8558 68.0021C47.2296 68.1663 45.6474 68.0101 44.4257 66.8285C43.6887 66.1155 43.1399 65.1982 42.5351 64.349C41.8621 63.4037 41.2292 62.4344 40.5643 61.485C40.4602 61.3328 40.2799 61.2327 40.0957 61.0805C36.8231 66.8204 33.5866 72.5003 30.3021 78.2603C30.5905 78.2203 30.7867 78.2083 30.979 78.1682C33.5145 77.6355 36.046 77.0947 38.5816 76.562C39.6871 76.3297 39.9955 76.4979 40.368 77.5834C41.1331 79.8105 41.8821 82.0456 42.6392 84.2767C42.7914 84.7253 42.9556 85.1699 43.1279 85.6586C46.5486 79.6583 49.9253 73.73 53.3621 67.7057L53.3581 67.7017ZM82.094 61.0725C81.2808 61.7013 80.7601 62.4424 80.2915 63.2315C79.7627 64.1167 79.262 65.018 78.6732 65.8591C77.824 67.0688 76.6464 67.8298 75.1563 67.9781C74.4313 68.0502 73.6943 68.0301 72.9693 67.9781C71.8437 67.9019 70.7222 67.7537 69.5966 67.6576C69.3523 67.6376 69.0999 67.7057 68.8316 67.7377C72.2443 73.722 75.613 79.6262 79.0297 85.6226C79.1819 85.202 79.2901 84.9096 79.3902 84.6091C80.1873 82.2499 80.9724 79.8906 81.7775 77.5353C82.11 76.558 82.4825 76.3216 83.4519 76.5219C85.4346 76.9265 87.4134 77.3631 89.3961 77.7797C90.2012 77.9479 91.0104 78.0881 91.8595 78.2483C88.587 72.4923 85.3505 66.8004 82.098 61.0765L82.094 61.0725ZM11.1915 41.0887C11.1915 40.3317 11.1915 39.6387 11.1915 38.9418C11.1915 33.5863 11.1915 28.2309 11.2116 22.8795C11.2116 22.3427 11.0233 22.2105 10.5226 22.2105C8.02714 22.2265 5.53168 22.2105 3.03622 22.2105C2.20706 22.2105 2.19104 22.2185 2.19104 23.0357C2.18303 28.6074 2.17903 34.1791 2.18303 39.7509C2.18303 41.0887 2.19905 41.0887 3.5329 41.0887C6.06041 41.0887 8.58792 41.0887 11.1915 41.0887Z" fill="white"/>
<path d="M52.1444 45.8275C52.4648 44.1331 52.8133 42.2745 53.1738 40.4159C53.334 39.5868 53.5343 38.7616 53.6745 37.9285C53.7026 37.7603 53.6064 37.5079 53.4782 37.3837C51.5996 35.5932 49.709 33.8188 47.8224 32.0403C47.4619 31.6998 47.1495 31.3393 47.3137 30.7826C47.4619 30.2819 47.8344 30.0736 48.3111 30.0095C49.9894 29.7772 51.6677 29.5449 53.3461 29.3205C54.2513 29.2004 55.1606 29.1002 56.0658 28.9921C56.4023 28.952 56.5906 28.8078 56.7508 28.4593C57.8403 26.1121 58.9699 23.7808 60.0954 21.4496C60.2877 21.0491 60.5641 20.7206 61.0808 20.7286C61.6055 20.7366 61.8979 21.0611 62.0982 21.4857C63.1957 23.8129 64.3013 26.1361 65.3708 28.4754C65.535 28.8359 65.7313 28.9721 66.0958 29.0161C68.6032 29.3045 71.1107 29.6009 73.6182 29.9214C73.9507 29.9654 74.3192 30.0776 74.5795 30.2739C75.0842 30.6544 75.0762 31.3193 74.5795 31.792C72.6809 33.6065 70.7783 35.417 68.8476 37.1995C68.5271 37.4959 68.459 37.7482 68.5392 38.1488C69.0318 40.6242 69.5205 43.0997 69.9651 45.5831C70.0292 45.9516 69.9451 46.4243 69.7528 46.7447C69.4845 47.1933 68.9597 47.2334 68.415 46.945C66.6405 46.0037 64.8741 45.0424 63.1076 44.089C62.5669 43.7966 62.0261 43.5082 61.4934 43.1998C61.205 43.0316 60.9566 43.0436 60.6642 43.2078C58.4572 44.4375 56.2501 45.6592 54.027 46.8529C53.7026 47.0251 53.2659 47.1212 52.9095 47.0732C52.4048 47.0051 52.1164 46.5004 52.1524 45.8275H52.1444ZM71.4552 31.8721C71.283 31.836 71.2069 31.816 71.1308 31.808C69.12 31.5476 67.1132 31.2753 65.0984 31.0349C64.4455 30.9548 64.0529 30.6223 63.7846 30.0455C63.0355 28.4353 62.2584 26.8371 61.4934 25.2389C61.3732 24.9825 61.241 24.7342 61.0848 24.4097C60.9847 24.598 60.9366 24.6821 60.8925 24.7702C60.0514 26.5407 59.2062 28.3071 58.3811 30.0816C58.1207 30.6424 57.7281 30.9588 57.0953 31.0309C55.5451 31.2072 53.995 31.4195 52.4488 31.6237C51.9201 31.6918 51.3954 31.78 50.7705 31.8721C50.9908 32.0764 51.123 32.2005 51.2552 32.3247C52.6371 33.6225 54.011 34.9283 55.4049 36.2141C55.8215 36.5986 56.0017 37.0192 55.8936 37.584C55.5251 39.5067 55.1766 41.4374 54.8201 43.36C54.7841 43.5443 54.752 43.7285 54.7039 43.9729C54.8562 43.9168 54.9363 43.8968 55.0084 43.8567C56.7348 42.8994 58.4692 41.9501 60.1876 40.9727C60.7644 40.6443 61.2771 40.6162 61.8699 40.9527C63.4601 41.8539 65.0703 42.7151 66.6726 43.5883C66.9249 43.7245 67.1813 43.8487 67.4777 43.9969C67.4777 43.8527 67.4897 43.7846 67.4777 43.7245C67.0811 41.7057 66.6926 39.6829 66.268 37.6721C66.1398 37.0633 66.288 36.6187 66.7447 36.2101C68.0545 35.0325 69.3483 33.8348 70.6461 32.6411C70.8984 32.4088 71.1388 32.1725 71.4512 31.8761L71.4552 31.8721Z" fill="white"/>
</svg>
