<svg width="91" height="91" viewBox="0 0 91 91" fill="none" xmlns="http://www.w3.org/2000/svg">
<path d="M53.0073 44.4713C53.0299 44.4826 53.1319 44.5544 53.2452 44.5921C56.3493 45.7061 58.5999 47.8208 60.1029 50.6984C62.0779 54.4708 63.9547 58.2924 65.8654 62.0989C67.4099 65.1765 68.9469 68.2617 70.48 71.3432C70.8237 72.0305 71.1598 72.7177 71.4694 73.4201C71.5978 73.7109 71.7715 73.7977 72.0812 73.794C73.8069 73.7789 75.5327 73.7902 77.2546 73.7864C79.4562 73.7864 81.4387 74.3944 83.0512 75.9389C85.5398 78.3293 86.4687 81.2257 85.4227 84.5412C84.4069 87.7586 82.1109 89.6656 78.7576 90.2207C78.1874 90.3151 77.6021 90.3416 77.0243 90.3416C73.2934 90.3529 69.5586 90.3529 65.8277 90.3416C64.6155 90.3416 63.4222 90.1943 62.3044 89.658C60.7222 88.9028 59.476 87.7775 58.7434 86.1801C57.7767 84.0692 56.5947 82.0866 55.3976 80.1041C53.1055 76.309 50.8926 72.4723 48.6532 68.6469C48.0981 67.7029 47.577 66.7399 46.9804 65.6826C46.8595 65.9582 46.7576 66.1508 46.6934 66.3585C45.7191 69.3153 44.7524 72.2759 43.7705 75.229C43.1135 77.2039 42.1845 79.0505 40.961 80.731C37.1998 85.912 32.1699 89.0538 25.8295 90.081C22.2874 90.655 18.8359 90.3038 15.4523 89.1634C8.5229 86.8296 3.863 82.1433 1.3178 75.346C0.449257 73.0047 0.0187634 70.5464 0.0187634 68.0276C0.0187634 58.9948 -0.0341043 49.962 0.0376447 40.9292C0.0867361 34.4831 2.29207 28.8565 6.88778 24.2494C12.9109 18.2074 18.9492 12.1805 24.9836 6.14981C25.8484 5.28504 26.6716 4.36363 27.6157 3.59705C30.3082 1.4106 33.45 0.289048 36.8977 0.0586962C39.9187 -0.145222 42.8756 0.156879 45.6926 1.36528C49.265 2.89467 51.8744 5.46253 53.7436 8.82717C55.0729 11.2213 55.6582 13.8118 55.7224 16.527C55.7488 17.6561 55.7111 18.7852 55.7375 19.9143C55.7451 20.2088 55.8357 20.5411 55.9981 20.779C56.7911 21.9232 57.2103 23.1883 57.214 24.5704C57.2178 26.2773 57.2216 27.9879 57.1196 29.691C57.0781 30.3896 56.893 31.1449 56.5532 31.7453C55.7337 33.1954 55.3523 34.755 55.0616 36.3637C54.7708 37.9799 54.48 39.6037 54.0873 41.1973C53.8192 42.2962 53.3811 43.3535 53.0073 44.4751V44.4713ZM24.1038 64.7914H3.03222C3.05865 66.9552 2.93781 69.085 3.31544 71.1997C3.98384 74.9722 5.53211 78.3142 8.19437 81.0708C12.5446 85.5759 17.8352 87.7624 24.1415 87.2488C29.4321 86.8183 33.7672 84.4732 37.3169 80.5988C38.8727 78.8995 39.9829 76.9132 40.7382 74.7531C42.1505 70.705 43.4949 66.6342 44.8543 62.5671C44.9072 62.4048 44.8619 62.1631 44.775 62.0045C44.4729 61.4569 44.1255 60.932 43.8083 60.392C43.3438 59.6028 42.8907 58.806 42.4111 57.9714C43.0379 57.6203 43.627 57.2955 44.2086 56.9632C44.7121 56.6762 45.1111 56.7807 45.4057 57.2766C49.0233 63.3979 52.6447 69.5155 56.2586 75.6406C57.2442 77.3097 58.2034 78.9939 59.2192 80.7423C62.4253 78.7371 65.6049 76.7508 68.7996 74.7531C68.7581 74.6474 68.7316 74.5568 68.6901 74.4775C65.0007 67.0987 61.3188 59.7161 57.6181 52.341C56.2851 49.6825 54.1402 47.9606 51.3268 47.0392C50.9756 46.9259 50.7415 46.9976 50.4847 47.2318C49.3519 48.2664 48.015 48.9651 46.531 49.3049C45.5303 49.5353 44.4918 49.6183 43.4647 49.6863C42.5508 49.7467 41.6256 49.6977 40.6551 49.6977V52.7073C39.9754 52.7073 39.3485 52.7262 38.7254 52.6998C38.3478 52.6847 38.0835 52.8131 37.8191 53.0774C34.3223 56.5893 30.8104 60.0861 27.3174 63.5981C27.1965 63.7189 27.1323 63.953 27.1323 64.1343C27.1172 65.6712 27.1248 67.2082 27.1248 68.7451V69.2285H24.1075V64.7838L24.1038 64.7914ZM37.6341 39.1619H37.0828C34.9643 39.1619 32.8496 39.177 30.7311 39.1506C30.1571 39.143 29.568 39.0826 29.0167 38.9278C27.7705 38.5803 26.9171 37.7345 26.294 36.6242C24.791 33.9469 23.2843 31.277 21.7549 28.6148C21.6228 28.3844 21.3622 28.1692 21.113 28.071C17.9069 26.806 15.913 24.5251 15.2371 21.1227C15.1767 20.8206 15.1351 20.5147 15.0747 20.1484C14.9237 20.2881 14.8179 20.375 14.7198 20.4732C13.3339 21.8591 11.9215 23.2223 10.5659 24.6346C9.46319 25.7864 8.34164 26.9381 7.37492 28.2032C4.50874 31.9492 3.00579 36.1824 3.02089 40.9405C3.04733 47.6811 3.02844 54.4255 3.02844 61.1662C3.02844 61.3474 3.02844 61.5287 3.02844 61.7099H24.0622C24.0773 61.6457 24.1 61.6042 24.1 61.5589C24.1 58.3453 24.1038 55.1317 24.1 51.9143C24.1 51.7935 24.0396 51.6424 23.9527 51.5556C23.1144 50.7097 22.2534 49.8865 21.4226 49.033C20.0027 47.5754 18.6017 46.0989 17.2385 44.679C17.805 44.0861 18.4696 43.3913 19.1833 42.6511C19.255 42.7493 19.3117 42.8475 19.3872 42.923C21.4 44.9433 23.4203 46.9636 25.433 48.9839C25.8824 49.4333 26.3695 49.709 27.0455 49.7052C30.4026 49.6788 33.7559 49.6901 37.113 49.6901C37.2791 49.6901 37.4491 49.6901 37.6379 49.6901V39.1543L37.6341 39.1619ZM40.606 24.5968C41.0743 24.2419 41.5161 23.9398 41.9164 23.5924C42.0486 23.4791 42.1581 23.2563 42.1618 23.0826C42.177 20.9188 42.1883 18.755 42.1618 16.5912C42.1467 15.2279 41.3537 14.1366 40.0887 13.6872C39.9301 13.6306 39.6582 13.6872 39.5222 13.7967C39.1559 14.0875 38.8387 14.4387 38.4913 14.7559C36.7731 16.3268 34.7641 16.8555 32.4908 16.4288C30.7877 16.1116 29.5076 15.1184 28.3709 13.8836C28.2161 13.7137 27.9253 13.5815 27.6988 13.5777C25.8182 13.5551 23.9376 13.5551 22.0533 13.5777C21.8191 13.5777 21.5284 13.6948 21.3584 13.8572C20.3086 14.8692 19.2815 15.9039 18.2581 16.9424C18.1524 17.0481 18.092 17.2407 18.0882 17.3917C18.0693 18.1281 18.0806 18.8645 18.0806 19.6008C18.0806 22.9202 20.8788 25.6806 24.1868 25.6353C24.4587 25.6353 24.6022 25.5636 24.6891 25.2766C24.9572 24.3627 25.2782 23.4602 25.5463 22.5463C25.6483 22.1989 25.7955 22.1423 26.1203 22.2631C26.7509 22.4972 27.3853 22.72 28.0311 22.9051C28.4465 23.0221 28.4918 23.1996 28.3445 23.581C28.0915 24.2268 27.8951 24.8989 27.6572 25.6051C28.5258 25.6051 29.3263 25.6202 30.1231 25.5976C30.5007 25.5862 30.7726 25.7108 31.0332 25.9752C31.8451 26.8022 32.6532 27.6405 33.5104 28.4184C34.3034 29.1397 35.0965 29.0604 35.8895 28.3353C36.5805 27.7047 37.3131 27.1118 38.0268 26.5039C38.0948 26.4472 38.1477 26.3717 38.2156 26.2962C38.1024 26.1413 38.0004 26.0016 37.8984 25.8619C37.0261 24.695 36.1463 23.5319 35.2891 22.3537C35.1984 22.2329 35.1569 21.9157 35.2286 21.8591C35.9084 21.3077 36.6145 20.7979 37.3396 20.2541C38.4196 21.6929 39.492 23.1165 40.5985 24.5893L40.606 24.5968ZM52.7618 18.3358C52.7052 17.0556 52.7845 15.7528 52.5654 14.4991C51.6252 9.08018 48.4644 5.48518 43.3136 3.64237C41.5463 3.01173 39.6846 3.01928 37.8305 3.02684C34.8472 3.03817 32.1132 3.85384 29.7984 5.73442C28.2086 7.0259 26.7849 8.51374 25.282 9.91474C25.0931 10.0884 24.893 10.247 24.6966 10.417C24.7268 10.4623 24.7608 10.5114 24.791 10.5567C24.9421 10.5567 25.0931 10.5567 25.2442 10.5567C26.3431 10.5567 27.4382 10.5756 28.5371 10.5491C28.9865 10.5378 29.3037 10.6851 29.6096 10.9985C30.1873 11.5952 30.7689 12.1956 31.4108 12.7167C32.8798 13.91 34.8699 13.9138 36.3577 12.7356C36.8977 12.3089 37.4113 11.8369 37.8569 11.312C38.3894 10.6851 38.9671 10.5454 39.7904 10.6096C42.3507 10.8135 44.4503 12.8413 44.9412 15.0769C45.1149 15.8661 45.1262 16.6893 45.1829 17.5012C45.2168 18.0073 45.1904 18.5171 45.1904 19.0684C47.6299 17.724 50.1486 18.0035 52.7656 18.3358H52.7618ZM40.6929 46.6842C41.7465 46.6842 42.7623 46.6842 43.7819 46.6842C47.2749 46.6842 50.2997 44.3203 51.104 40.9254C51.4326 39.5395 51.678 38.1385 51.965 36.7413C52.3993 34.6304 52.7203 32.4855 53.8418 30.5784C54.0684 30.1895 54.1892 29.6872 54.2006 29.2341C54.2421 27.6216 54.2459 26.0054 54.2081 24.3891C54.1704 22.6709 52.7089 21.1302 51.1305 21.0962C50.2053 21.0774 49.2801 21.0736 48.3549 21.0962C46.6934 21.134 45.2168 22.6747 45.1753 24.3363C45.1564 25.1406 45.417 25.8392 45.7984 26.5152C46.4064 27.5952 46.7047 28.7281 46.5159 29.9856C46.1685 32.274 45.9155 34.5813 45.5189 36.8621C45.2131 38.6332 44.1746 39.8718 42.4035 40.3967C41.856 40.5591 41.2782 40.6233 40.6853 40.7366V46.6842H40.6929ZM71.5223 87.3319C73.5124 87.3319 75.5025 87.3205 77.4926 87.3394C78.4442 87.3507 79.3165 87.1128 80.1397 86.6559C82.2355 85.4928 83.2551 83.0118 82.632 80.5988C82.0807 78.469 79.8678 76.7961 77.5907 76.7923C76.1822 76.7923 74.7623 76.8716 73.3613 76.7697C71.8206 76.6564 70.4536 76.9283 69.2905 77.9894C69.1999 78.0725 69.079 78.1253 68.9733 78.1895C66.311 79.836 63.6526 81.49 60.9865 83.1289C60.7411 83.2799 60.6504 83.4121 60.8053 83.6878C61.0092 84.039 61.164 84.4204 61.3679 84.7716C62.3422 86.4445 63.7394 87.3734 65.7371 87.3319C67.6629 87.2941 69.5926 87.3243 71.5185 87.3243L71.5223 87.3319ZM25.2102 28.6261C25.2329 28.7356 25.2329 28.7885 25.2555 28.8225C26.5017 30.9938 27.7516 33.1652 29.0016 35.3403C29.3528 35.9483 29.8814 36.1635 30.5725 36.1598C33.771 36.1446 36.9695 36.1484 40.168 36.1484C40.319 36.1484 40.4739 36.1484 40.674 36.1484V37.6212C41.8786 37.7496 42.4526 37.3153 42.6301 36.1522C42.9247 34.1848 43.1286 32.2022 43.5062 30.2537C43.7668 28.9169 43.2456 27.886 42.6074 26.7871C42.4337 26.9041 42.2714 26.9985 42.1279 27.1118C40.5947 28.3278 39.0427 29.5211 37.5435 30.7786C35.7573 32.274 33.3556 32.274 31.6487 30.688C31.0294 30.1102 30.463 29.4795 29.855 28.8905C29.7304 28.7696 29.5454 28.645 29.3868 28.6412C28.0084 28.6223 26.6301 28.6299 25.2102 28.6299V28.6261ZM27.1323 59.5197C29.3943 57.2539 31.6525 54.992 33.8881 52.7526H27.1323V59.5197Z" fill="white"/>
<path d="M72.3197 31.6121C72.2215 29.4181 71.0735 28.0171 69.0797 27.3299C67.0254 26.6199 64.7898 27.6055 63.7589 29.5881C62.7846 31.4573 63.2906 33.8477 64.9522 35.1429C65.817 35.8189 66.7799 36.2003 67.9052 36.1588C68.8418 36.1248 69.782 36.1512 70.7827 36.1512V39.1571C68.3773 39.1382 65.9982 39.4026 63.8155 38.0507C61.2741 36.476 59.9222 33.3228 60.2923 30.7889C60.7794 27.4469 62.9055 25.083 65.9454 24.3806C66.2739 24.3051 66.4212 24.1993 66.4816 23.8255C67.1047 20.1927 70.2881 17.1717 73.9661 16.6808C79.7174 15.9142 83.4143 20.0643 84.1583 23.9426C84.1885 24.0974 84.4075 24.2937 84.5737 24.3353C87.6815 25.1283 89.8076 27.4545 90.272 30.6114C90.8498 34.5312 88.1951 38.2395 84.2791 38.9683C83.7882 39.0589 83.2859 39.1345 82.7875 39.1496C81.817 39.176 80.8465 39.1571 79.842 39.1571V36.1512C80.8578 36.1512 81.8699 36.1588 82.8819 36.1512C85.0646 36.1285 86.9225 34.5199 87.2586 32.3674C87.6022 30.1734 86.4316 28.1871 84.2036 27.2619C84.1469 27.4318 84.079 27.5942 84.0336 27.7679C83.5427 29.6221 82.5873 31.1854 81.1373 32.4505C80.854 32.6997 80.6803 32.7488 80.4349 32.4089C79.9591 31.7519 79.453 31.1175 78.9168 30.4188C79.2491 30.1092 79.5814 29.8411 79.8609 29.5276C82.2701 26.805 81.5866 22.2621 78.5014 20.4911C74.9442 18.4481 70.7676 20.0455 69.4762 23.9312C69.3364 24.3542 69.6159 24.3693 69.8651 24.441C72.6293 25.2416 74.2758 27.1259 75.0386 29.8373C75.1972 30.4 75.2312 30.9966 75.3256 31.6121H72.3121H72.3197Z" fill="white"/>
<path d="M71.0466 53.3686C72.5987 50.6762 74.1469 47.9837 75.7443 45.2119H69.9175C70.0686 44.8834 70.1781 44.6341 70.2989 44.3887C71.6621 41.6245 73.0254 38.8602 74.3924 36.0998C74.6907 35.4994 74.9966 34.8989 75.3176 34.3136C75.3742 34.2117 75.5819 34.0908 75.6536 34.1248C76.4618 34.4911 77.2586 34.8876 78.1498 35.3219C76.9942 37.6141 75.8689 39.8572 74.7058 42.1607H80.8422C80.3966 42.9801 80.0115 43.7241 79.5961 44.4529C77.7495 47.6703 75.8953 50.8839 74.0412 54.0937C73.5805 54.8905 73.5729 54.8867 72.7761 54.4373C72.2324 54.1314 71.6886 53.8218 71.1448 53.5084C71.1184 53.4933 71.107 53.4593 71.0391 53.3649L71.0466 53.3686Z" fill="white"/>
<path d="M9.04458 15.0547H6.10665C5.85742 10.6704 9.82627 6.09361 15.0451 6.05962V9.03909C13.3948 9.02021 12.0014 9.66217 10.8534 10.8102C9.70165 11.9581 9.0257 13.3365 9.04458 15.0547Z" fill="white"/>
<path d="M9.02918 4.48813C6.18188 4.92617 4.88284 6.22521 4.49011 9.02719H1.55973C1.52952 4.80155 5.01123 1.52376 9.0254 1.55775V4.48813H9.02918Z" fill="white"/>
</svg>
