<svg width="92" height="89" viewBox="0 0 92 89" fill="none" xmlns="http://www.w3.org/2000/svg">
<path d="M59.5425 39.3041C59.8489 36.4338 61.2357 34.445 63.9286 33.5366C67.4922 32.3272 71.3677 34.7782 71.8944 38.5408C71.9751 39.1106 72.1417 39.3363 72.7598 39.3202C74.3885 39.2718 76.0171 39.2987 77.6458 39.3041C79.0379 39.3041 79.5539 39.8201 79.5539 41.1961C79.5539 47.5333 79.5539 53.8705 79.5539 60.2077C79.5539 64.067 76.5546 66.9911 72.5986 66.9911C62.8267 66.9911 53.0548 66.9911 43.2883 66.9911C40.3427 66.9911 37.3972 66.9158 34.457 67.0072C30.9149 67.1201 27.3351 64.4272 27.3619 59.8476C27.4157 51.4947 27.3942 43.1419 27.3942 34.789C27.3942 30.4244 27.3781 26.0545 27.3834 21.6899C27.3834 18.5778 28.9476 16.1106 31.6351 15.1001C32.4736 14.783 33.4143 14.6056 34.3065 14.6002C40.5954 14.5572 46.8896 14.5733 53.1784 14.5787C54.3502 14.5787 54.9146 15.1162 54.9199 16.2934C54.9361 18.7122 54.9307 21.1309 54.9199 23.5497C54.9199 24.5387 54.4631 25.0225 53.4741 25.1246C52.9634 25.1784 52.442 25.1569 51.9475 25.2805C50.378 25.6675 49.389 27.1026 49.5019 28.7474C49.604 30.2471 50.7865 31.4672 52.3453 31.6661C52.7 31.7091 53.0548 31.7198 53.4095 31.7413C54.4308 31.8166 54.9146 32.3003 54.9253 33.3162C54.9414 35.0846 54.9522 36.853 54.9092 38.6214C54.8931 39.2127 55.0919 39.3363 55.6348 39.3202C56.9248 39.2826 58.2149 39.3094 59.5586 39.3094L59.5425 39.3041ZM51.9852 39.2987C51.9852 37.9872 51.9475 36.7563 52.0013 35.5308C52.0282 34.8643 51.8615 34.5848 51.1628 34.402C48.3462 33.6656 46.4327 31.0856 46.5402 28.3228C46.6585 25.3074 48.6042 22.9477 51.4799 22.3618C51.8669 22.2812 52.0013 22.1307 51.9959 21.7437C51.9798 20.5343 51.9583 19.3249 51.9959 18.1155C52.0067 17.6425 51.883 17.4974 51.4046 17.4974C45.6264 17.5135 39.8482 17.4974 34.0754 17.5189C33.5594 17.5189 33.0004 17.6533 32.5381 17.879C30.9847 18.6423 30.2752 19.9377 30.2806 21.6738C30.2914 27.3606 30.2914 33.0475 30.2752 38.7343C30.2752 39.2503 30.4795 39.3148 30.9149 39.3094C32.608 39.2879 34.3065 39.2772 35.9997 39.2933C37.3488 39.3041 37.8057 39.8201 37.8917 41.1692C37.9293 41.8035 38.0207 42.4807 38.2895 43.0451C38.9613 44.4426 40.504 45.0608 42.0251 44.6684C43.4495 44.2975 44.4332 42.9806 44.4385 41.4218C44.4439 39.6964 44.8524 39.2879 46.5671 39.2879C48.3462 39.2879 50.1254 39.2879 51.9959 39.2879L51.9852 39.2987ZM64.3209 64.0294C67.1751 64.0294 70.0347 64.024 72.8888 64.0294C73.9531 64.0294 74.8346 63.6424 75.5656 62.8684C76.4632 61.9224 76.6675 60.7775 76.6567 59.5251C76.6299 53.9726 76.6245 48.4148 76.6406 42.8624C76.6406 42.3195 76.4525 42.2335 75.9795 42.2389C74.1735 42.255 72.3674 42.2496 70.556 42.2389C69.6315 42.2335 69.1048 41.7336 69.0295 40.8145C68.9973 40.3898 69.008 39.9652 69.008 39.5406C69.0188 37.6539 67.5997 36.1973 65.7453 36.1973C63.9608 36.1973 62.5149 37.6754 62.5042 39.5191C62.5042 39.9222 62.5149 40.3253 62.5042 40.7285C62.4773 41.6906 61.9075 42.2496 60.94 42.255C59.134 42.255 57.328 42.2657 55.5166 42.2496C55.0597 42.2496 54.8769 42.384 54.8823 42.857C54.8984 44.0449 54.8823 45.2328 54.8608 46.4153C54.8554 46.7969 54.9737 46.942 55.3714 47.0173C56.0863 47.1517 56.8335 47.286 57.4785 47.6086C60.0531 48.8986 61.3378 51.4894 60.8702 54.2898C60.4348 56.9021 58.2579 58.9338 55.4682 59.3208C55.0812 59.3746 54.8823 59.4821 54.8931 59.9444C54.9199 61.1322 54.9092 62.3201 54.8716 63.5026C54.8554 63.981 55.0597 64.0455 55.4682 64.0455C58.4137 64.0294 61.3593 64.0402 64.3048 64.0402L64.3209 64.0294ZM47.3895 42.2442C47.3518 42.4592 47.3142 42.6097 47.2927 42.7602C46.7606 46.6572 43.3313 49.0813 39.5472 48.1031C36.8758 47.4097 35.4245 45.4961 34.9945 42.8032C34.9193 42.3249 34.7527 42.2281 34.3173 42.2389C33.2046 42.2657 32.0866 42.2711 30.974 42.2281C30.4365 42.2066 30.2806 42.4055 30.286 42.9215C30.3021 45.2704 30.286 47.6247 30.286 49.9736C30.286 53.3545 30.2699 56.7354 30.286 60.1164C30.2967 62.433 31.9254 64.0294 34.2152 64.0348C39.945 64.0348 45.6748 64.0509 51.4046 64.0509C51.5928 64.0509 51.7809 64.0133 52.0013 63.9918C52.0013 63.5403 52.0013 63.1586 52.0013 62.7824C52.0013 61.3042 51.9798 59.8261 52.0013 58.3533C52.0174 57.0042 52.4689 56.5634 53.7966 56.4721C54.2803 56.4398 54.7856 56.4022 55.2424 56.2571C56.7367 55.7679 57.6559 54.2199 57.4247 52.6773C57.1936 51.1185 55.8875 49.893 54.2911 49.9145C52.7108 49.936 51.9368 49.7532 51.9905 47.4419C52.0282 45.8993 51.9905 44.3513 52.0013 42.8086C52.0013 42.4055 51.8777 42.2442 51.4691 42.2496C50.1308 42.2657 48.7977 42.255 47.3948 42.255L47.3895 42.2442Z" fill="white"/>
<path d="M18.6754 14.5893C15.1924 15.3256 12.3705 17.0134 10.1398 19.6042C6.93626 23.3238 5.26999 27.6346 5.63012 32.6226C5.78062 34.7189 6.259 36.7238 7.36089 38.5513C7.67802 39.0835 7.94678 39.1265 8.47891 38.8416C12.3221 36.7776 16.3695 36.5249 20.546 37.5677C21.2125 37.7343 21.7446 38.073 21.9166 38.7932C22.1746 39.8575 21.1265 40.8035 19.9977 40.4756C17.6972 39.8091 15.3751 39.7177 13.0531 40.2284C7.88765 41.3625 3.77572 45.5551 3.07696 50.656C2.32445 56.144 5.34524 61.347 10.5537 63.6261C10.8171 63.7443 11.0912 63.8464 11.3546 63.9593C12.3436 64.3947 12.6177 64.8516 12.3758 65.9158C11.1933 71.0813 14.3539 75.7146 18.2884 77.526C20.0998 78.3591 22.0026 78.515 23.9161 78.2086C25.0718 78.0259 25.7866 78.3054 26.222 79.719C27.1949 82.8957 30.2318 85.1586 33.5053 85.3037C36.8647 85.4542 39.09 82.6484 39.1007 79.8857C39.1115 77.7356 39.1007 75.5856 39.1007 73.4356C39.1007 72.4036 39.6543 71.7263 40.5412 71.694C41.3959 71.6672 42.0247 72.3713 42.0301 73.3926C42.0355 75.6071 42.0086 77.827 42.0409 80.0415C42.0839 82.6914 44.1694 85.078 46.6258 85.2446C49.7595 85.4596 52.2266 84.2072 53.9843 81.6164C54.4035 80.9983 54.6992 80.278 54.9625 79.5685C55.4463 78.2516 55.8118 78.0044 57.2039 78.2301C61.7943 78.9611 66.0997 76.537 68.1476 72.0703C68.2766 71.7854 68.3895 71.4952 68.5292 71.2157C68.8464 70.5922 69.5451 70.3073 70.2278 70.5008C70.8405 70.6782 71.292 71.2587 71.2114 71.9198C71.163 72.3552 71.0179 72.7959 70.8351 73.1937C68.8302 77.5314 65.5299 80.2512 60.8268 81.1381C59.913 81.3101 58.9616 81.2993 58.0263 81.2939C57.6286 81.2939 57.4512 81.396 57.2738 81.7508C55.5538 85.2607 52.7964 87.4376 48.9371 88.088C45.6744 88.6363 42.9708 87.5935 40.8584 85.0242C40.8154 84.9705 40.7831 84.9167 40.7347 84.8684C40.7025 84.8361 40.6595 84.82 40.595 84.7824C40.5305 84.8146 40.4337 84.8361 40.3853 84.8952C37.4398 88.6309 33.2687 88.9803 29.2966 87.2065C26.7918 86.0885 24.9804 84.2341 23.8462 81.7293C23.685 81.3692 23.4915 81.2294 23.0884 81.2563C16.5738 81.6863 10.8386 77.0261 9.48942 70.7158C9.22604 69.4903 9.27979 68.1841 9.28517 66.9156C9.28517 66.4372 9.20992 66.2115 8.77454 65.9911C4.68948 63.9593 1.83532 60.788 0.6098 56.3751C-0.922096 50.8334 0.464673 45.9421 4.4046 41.7818C4.71098 41.4593 5.06036 41.1797 5.40437 40.8626C4.06597 38.9921 3.34034 36.9657 2.95871 34.8049C2.1632 30.3006 2.86733 26.0382 4.97973 21.9961C7.6189 16.9543 11.575 13.4659 17.0898 11.9716C18.3099 11.6437 18.8636 11.2352 19.2183 9.92907C21.1748 2.74259 28.7214 -1.48759 35.8972 0.485062C37.6226 0.958068 39.0631 1.89871 40.165 3.33385C40.3907 3.62948 40.5735 3.89823 40.9121 3.43598C42.4171 1.39882 44.5188 0.452812 46.9537 0.130307C49.7272 -0.235198 52.3771 0.157182 54.8712 1.4472C55.8548 1.95783 56.0268 3.02747 55.2958 3.79073C54.7959 4.31212 54.1939 4.36587 53.5812 4.04874C51.7321 3.1081 49.7702 2.82859 47.7331 2.99522C45.6583 3.16722 43.8254 3.88211 42.7934 5.82251C42.3849 6.58577 42.1967 7.49416 42.057 8.36492C41.9387 9.12818 42.0409 9.92907 42.0247 10.7138C42.0032 11.5523 41.3905 12.1651 40.5896 12.1812C39.8102 12.1973 39.1491 11.5792 39.1168 10.7568C39.0846 9.83769 39.1652 8.91318 39.0577 8.00479C38.7567 5.43013 36.9991 3.61873 34.4244 3.1296C29.0923 2.11908 23.8892 5.10225 22.1585 10.2193C21.2393 12.9391 21.3898 15.6266 22.5509 18.2658C22.954 19.1796 22.4003 20.1095 21.4328 20.2707C20.8147 20.3728 20.1482 20.0772 19.9009 19.3408C19.4494 17.9917 19.1269 16.6049 18.756 15.2289C18.7077 15.0461 18.7077 14.8473 18.6754 14.5839V14.5893Z" fill="white"/>
<path d="M91.1748 16.9223C91.1748 20.1473 91.1748 23.3723 91.1748 26.5974C91.1748 27.9412 90.7502 28.3927 89.4279 28.4034C87.1059 28.4249 84.7892 28.4249 82.4672 28.4034C81.1772 28.3927 80.7149 27.9412 80.6719 26.6189C80.645 25.7535 80.5375 24.9365 79.9678 24.227C79.0863 23.1305 77.7264 22.7058 76.3665 23.1412C75.0872 23.5497 74.2057 24.743 74.152 26.119C74.0767 28.1669 73.808 28.4249 71.7869 28.4195C69.7121 28.4195 67.6374 28.4195 65.5626 28.4195C64.0414 28.4195 63.6061 27.9734 63.6114 26.4684C63.6222 24.8129 63.6007 23.152 63.6276 21.4964C63.6329 21.0019 63.5093 20.7923 62.9772 20.7386C59.9886 20.4268 57.6505 17.8575 57.5806 14.8582C57.5107 11.6708 59.6554 8.96714 62.6923 8.52639C63.4126 8.42426 63.6652 8.20388 63.6329 7.45137C63.5738 5.84423 63.6114 4.22633 63.6222 2.61381C63.6276 1.30229 64.1597 0.759405 65.439 0.759405C71.7977 0.759405 78.151 0.74328 84.5097 0.76478C88.1379 0.780906 91.1211 3.76407 91.1533 7.38687C91.1856 10.5689 91.1587 13.7456 91.1587 16.9276H91.1694L91.1748 16.9223ZM66.5247 25.5062C68.0566 25.5062 69.5025 25.5224 70.943 25.4847C71.0828 25.4847 71.2978 25.173 71.3354 24.9741C71.6956 23.2541 72.6362 21.9426 74.0821 21.0019C77.6834 18.6584 82.5263 20.6956 83.424 24.9096C83.4992 25.259 83.5583 25.5385 84.0313 25.5277C85.2354 25.5009 86.4394 25.5009 87.6434 25.5277C88.1057 25.5331 88.2615 25.3772 88.2561 24.9042C88.24 19.1529 88.2561 13.3962 88.2346 7.64488C88.2293 5.34434 86.6275 3.6942 84.3216 3.68345C78.6133 3.6512 72.9049 3.68345 67.1966 3.6727C66.6967 3.6727 66.5032 3.8017 66.514 4.3607C66.557 6.05923 66.5409 7.76313 66.5301 9.46703C66.5194 10.843 66.0302 11.3268 64.6811 11.3268C64.3478 11.3268 64.0092 11.3214 63.6759 11.3268C62.0419 11.3752 60.6121 12.7136 60.4993 14.3046C60.3756 16.0354 61.5205 17.5565 63.2083 17.836C63.7781 17.9274 64.3639 17.9113 64.9391 17.922C66.0248 17.9489 66.5247 18.4542 66.5247 19.5453C66.5247 21.4911 66.5247 23.4368 66.5247 25.517V25.5062Z" fill="white"/>
</svg>
