<svg width="44" height="44" viewBox="0 0 44 44" fill="none" xmlns="http://www.w3.org/2000/svg">
<rect width="44" height="44" rx="8" fill="#EFF9FF"/>
<path d="M22 21.22C21 19.997 20 19 20 18C20 17.4696 20.2107 16.9609 20.5858 16.5858C20.9609 16.2107 21.4696 16 22 16C22.5304 16 23.0391 16.2107 23.4142 16.5858C23.7893 16.9609 24 17.4696 24 18C24 19 23.002 20.002 21.99 21.22" stroke="#0069AB" stroke-width="3" stroke-linecap="round" stroke-linejoin="round"/>
<path d="M22 28L24.57 24.5" stroke="#0069AB" stroke-width="3" stroke-linecap="round" stroke-linejoin="round"/>
<path d="M16.243 19.016C16.8865 18.0859 17.7459 17.3255 18.7475 16.8C19.749 16.2745 20.8631 15.9995 21.9941 15.9987C23.1252 15.9978 24.2397 16.271 25.2421 16.7949C26.2445 17.3188 27.105 18.0779 27.75 19.007" stroke="#0069AB" stroke-width="3" stroke-linecap="round" stroke-linejoin="round"/>
<path d="M19.35 24.53L22 21.22" stroke="#0069AB" stroke-width="3" stroke-linecap="round" stroke-linejoin="round"/>
<path d="M19.35 24.53C17.728 22.246 16 20.221 16 17C16 15.6739 16.6321 14.4021 17.7574 13.4645C18.8826 12.5268 20.4087 12 22 12C23.5913 12 25.1174 12.5268 26.2426 13.4645C27.3679 14.4021 28 15.6739 28 17C27.995 20.22 26.222 22.235 24.57 24.5L28.127 29.027C28.2104 29.1331 28.2714 29.255 28.3064 29.3853C28.3414 29.5157 28.3497 29.6517 28.3307 29.7853C28.3118 29.9189 28.266 30.0473 28.1961 30.1628C28.1262 30.2782 28.0336 30.3783 27.924 30.457L26.03 31.817C25.8171 31.9695 25.5529 32.0325 25.2941 31.9923C25.0353 31.9521 24.8026 31.8119 24.646 31.602L22 28L19.321 31.593C19.164 31.8043 18.93 31.9452 18.6698 31.9851C18.4095 32.025 18.1441 31.9606 17.931 31.806L16.066 30.453C15.9576 30.3743 15.866 30.2746 15.7969 30.1599C15.7277 30.0451 15.6823 29.9176 15.6634 29.785C15.6445 29.6523 15.6524 29.5173 15.6867 29.3877C15.7209 29.2582 15.7809 29.1369 15.863 29.031L19.35 24.53Z" stroke="#0069AB" stroke-width="3" stroke-linecap="round" stroke-linejoin="round"/>
</svg>
