<svg width="40" height="40" viewBox="0 0 40 40" fill="none" xmlns="http://www.w3.org/2000/svg">
<circle cx="20" cy="20" r="20" fill="#043A53"/>
<path d="M20 21.875C19.0729 21.875 18.1666 21.6001 17.3958 21.085C16.6249 20.5699 16.0241 19.8379 15.6693 18.9813C15.3145 18.1248 15.2217 17.1823 15.4026 16.273C15.5834 15.3637 16.0299 14.5285 16.6854 13.8729C17.341 13.2174 18.1762 12.7709 19.0855 12.5901C19.9948 12.4092 20.9373 12.502 21.7938 12.8568C22.6504 13.2116 23.3824 13.8124 23.8975 14.5833C24.4126 15.3541 24.6875 16.2604 24.6875 17.1875C24.686 18.4302 24.1917 19.6217 23.3129 20.5004C22.4342 21.3792 21.2427 21.8735 20 21.875ZM20 14.375C19.4437 14.375 18.9 14.54 18.4375 14.849C17.9749 15.158 17.6145 15.5973 17.4016 16.1112C17.1887 16.6251 17.133 17.1906 17.2415 17.7362C17.3501 18.2818 17.6179 18.7829 18.0113 19.1762C18.4046 19.5696 18.9057 19.8374 19.4513 19.946C19.9969 20.0545 20.5624 19.9988 21.0763 19.7859C21.5902 19.573 22.0295 19.2126 22.3385 18.75C22.6476 18.2875 22.8125 17.7438 22.8125 17.1875C22.8118 16.4418 22.5152 15.7269 21.9879 15.1996C21.4606 14.6723 20.7457 14.3757 20 14.375Z" fill="white"/>
<path d="M20 33.125L12.0913 23.7978C11.9814 23.6578 11.8726 23.5168 11.765 23.375C10.4147 21.5951 9.68499 19.4216 9.68751 17.1875C9.68751 14.4525 10.774 11.8294 12.708 9.89546C14.6419 7.96149 17.265 6.875 20 6.875C22.7351 6.875 25.3581 7.96149 27.292 9.89546C29.226 11.8294 30.3125 14.4525 30.3125 17.1875C30.3147 19.4206 29.5853 21.5929 28.2359 23.3722L28.235 23.375C28.235 23.375 27.9538 23.7444 27.9116 23.7941L20 33.125ZM13.2622 22.2453C13.2622 22.2453 13.4806 22.5341 13.5303 22.5959L20 30.2263L26.4781 22.5856C26.5194 22.5341 26.7388 22.2434 26.7397 22.2425C27.8433 20.7886 28.4397 19.0129 28.4375 17.1875C28.4375 14.9497 27.5486 12.8036 25.9662 11.2213C24.3839 9.63895 22.2378 8.75 20 8.75C17.7622 8.75 15.6161 9.63895 14.0338 11.2213C12.4515 12.8036 11.5625 14.9497 11.5625 17.1875C11.5602 19.014 12.1573 20.7909 13.2622 22.2453Z" fill="white"/>
</svg>
