<svg width="44" height="44" viewBox="0 0 44 44" fill="none" xmlns="http://www.w3.org/2000/svg">
<rect width="44" height="44" rx="8" fill="#EFF9FF"/>
<path d="M30 23C30 28 26.5 30.5 22.34 31.95C22.1222 32.0238 21.8855 32.0202 21.67 31.94C17.5 30.5 14 28 14 23V16C14 15.7347 14.1054 15.4804 14.2929 15.2929C14.4804 15.1053 14.7348 15 15 15C17 15 19.5 13.8 21.24 12.28C21.4519 12.099 21.7214 11.9995 22 11.9995C22.2786 11.9995 22.5481 12.099 22.76 12.28C24.51 13.81 27 15 29 15C29.2652 15 29.5196 15.1053 29.7071 15.2929C29.8946 15.4804 30 15.7347 30 16V23Z" stroke="#0069AB" stroke-width="3" stroke-linecap="round" stroke-linejoin="round"/>
<path d="M16.376 28.91C16.8027 27.7622 17.5704 26.7724 18.576 26.0736C19.5816 25.3748 20.777 25.0004 22.0015 25.0007C23.2261 25.0011 24.4212 25.3761 25.4265 26.0754C26.4317 26.7748 27.1989 27.7649 27.625 28.913" stroke="#0069AB" stroke-width="3" stroke-linecap="round" stroke-linejoin="round"/>
<path d="M22 25C24.2091 25 26 23.2091 26 21C26 18.7909 24.2091 17 22 17C19.7909 17 18 18.7909 18 21C18 23.2091 19.7909 25 22 25Z" stroke="#0069AB" stroke-width="3" stroke-linecap="round" stroke-linejoin="round"/>
</svg>
